<?xml version="1.0" encoding="iso-8859-1"?>
<!-- Generator: Adobe Illustrator 19.0.0, SVG Export Plug-In . SVG Version: 6.00 Build 0)  -->
<svg version="1.1" id="Capa_1" xmlns="http://www.w3.org/2000/svg" xmlns:xlink="http://www.w3.org/1999/xlink" x="0px" y="0px"
	 viewBox="0 0 511.994 511.994" style="enable-background:new 0 0 511.994 511.994;" xml:space="preserve">
<g>
	<g>
		<g>
			<path d="M110.569,0H82.588c-7.535,0-14.652,3.302-19.533,9.054c-4.864,5.751-6.955,13.32-5.734,20.625l13.647,90.342
				L62.452,494.74c-0.068,2.927,1.365,5.675,3.797,7.296l3.26,2.167c8.055,5.188,17.374,7.791,26.795,7.791
				c9.446,0,18.987-2.611,27.46-7.868l3.149-2.091c2.432-1.621,3.866-4.369,3.797-7.296l-0.965-42.447
				c0-0.009,0.001-0.017,0.001-0.026c0-0.023-0.003-0.046-0.003-0.069l-1.161-51.098c0-0.011,0.002-0.022,0.002-0.033
				c0-0.029-0.004-0.057-0.004-0.086l-4.071-179.107c0-0.002,0-0.004,0-0.007c0-0.006-0.001-0.011-0.001-0.017l-2.315-101.858
				l13.626-90.185c1.237-7.433-0.845-15.002-5.717-20.753C125.229,3.302,118.104,0,110.569,0z M105.307,128.003l0.776,34.131H87.08
				l0.776-34.131H105.307z M85.529,230.4h22.107l3.688,162.133H81.845L85.529,230.4z M85.917,213.333l0.776-34.133h19.779
				l0.776,34.133H85.917z M81.457,409.6h30.255l0.776,34.133H80.682L81.457,409.6z M76.086,20.087
				c1.647-1.954,3.959-3.021,6.502-3.021h27.981c2.552,0,4.864,1.067,6.511,3.021c1.647,1.946,2.321,4.403,1.886,7.04
				l-12.663,83.806H86.855L74.174,26.999C73.756,24.491,74.43,22.033,76.086,20.087z M79.621,490.405l0.673-29.605h32.583
				l0.673,29.571C102.857,496.506,89.725,496.498,79.621,490.405z"/>
			<path d="M454.018,452.267c0-0.012-0.002-0.024-0.002-0.036l-7.521-330.905c11.059-23.527,11.375-50.496,0.789-74.332
				L428.647,5.069C427.273,1.988,424.227,0,420.848,0c-3.371,0-6.426,1.988-7.799,5.069l-18.637,41.924
				c-10.594,23.838-10.271,50.809,0.79,74.336l-7.514,330.936c0,0,0,0.001,0,0.001c0,0,0,0,0,0.001l-0.964,42.472
				c-0.068,2.927,1.365,5.675,3.797,7.296l3.251,2.167c8.055,5.188,17.374,7.791,26.795,7.791c9.455,0,18.995-2.611,27.477-7.868
				l3.14-2.091c2.432-1.621,3.866-4.378,3.797-7.296l-0.965-42.459C454.017,452.276,454.018,452.271,454.018,452.267z
				 M429.578,128.003l0.776,34.131h-19.01l0.775-34.131H429.578z M431.517,213.333h-21.335l0.775-34.133h19.785L431.517,213.333z
				 M409.795,230.4h22.11l3.684,162.133h-29.475L409.795,230.4z M405.727,409.6h30.25l0.776,34.133h-31.801L405.727,409.6z
				 M410.011,53.922l10.837-24.38l10.837,24.38c8.098,18.244,8.32,38.741,0.751,57.011H409.26
				C401.691,92.663,401.912,72.166,410.011,53.922z M403.893,490.405l0.672-29.605h32.576l0.672,29.571
				C427.121,496.506,413.988,496.489,403.893,490.405z"/>
			<path d="M305.004,17.869C292.306,6.323,275.99,0,258.71,0c-17.732,0-34.432,6.656-47.266,18.782
				c-2.381,1.621-3.934,4.437-3.934,7.424c0,1.348,0.316,2.637,0.887,3.797l24.692,90.538l-8.505,374.198
				c-0.068,2.927,1.365,5.675,3.797,7.296l3.26,2.167c8.055,5.188,17.374,7.791,26.795,7.791c9.446,0,18.987-2.611,27.46-7.868
				l3.157-2.091c2.423-1.621,3.857-4.369,3.789-7.296l-0.965-42.448c0-0.009,0.001-0.017,0.001-0.025
				c0-0.023-0.003-0.044-0.003-0.067l-1.161-51.089c0-0.015,0.002-0.029,0.002-0.044c0-0.04-0.005-0.078-0.006-0.117l-4.07-179.076
				c0-0.002,0-0.004,0-0.007c0-0.006-0.001-0.011-0.001-0.017l-2.303-101.337l25.128-92.122c0.29-0.904,0.444-1.843,0.444-2.79
				C309.91,22.212,307.931,19.243,305.004,17.869z M247.662,230.4h22.107l3.688,162.133h-29.479L247.662,230.4z M248.05,213.333
				l0.776-34.133h19.779l0.776,34.133H248.05z M249.214,162.133l0.776-34.131h17.451l0.776,34.131H249.214z M243.591,409.6h30.255
				l0.776,34.133h-31.807L243.591,409.6z M241.755,490.405l0.673-29.605h32.583l0.673,29.571
				C264.982,496.506,251.85,496.498,241.755,490.405z M269.266,110.933h-21.103L225.78,28.868
				c9.259-7.646,20.779-11.802,32.93-11.802c12.16,0,23.68,4.156,32.93,11.802L269.266,110.933z"/>
		</g>
	</g>
</g>
<g>
</g>
<g>
</g>
<g>
</g>
<g>
</g>
<g>
</g>
<g>
</g>
<g>
</g>
<g>
</g>
<g>
</g>
<g>
</g>
<g>
</g>
<g>
</g>
<g>
</g>
<g>
</g>
<g>
</g>
</svg>
