<?xml version="1.0" encoding="iso-8859-1"?>
<!-- Generator: Adobe Illustrator 19.0.0, SVG Export Plug-In . SVG Version: 6.00 Build 0)  -->
<svg version="1.1" id="Capa_1" xmlns="http://www.w3.org/2000/svg" xmlns:xlink="http://www.w3.org/1999/xlink" x="0px" y="0px"
	 viewBox="0 0 503.608 503.608" style="enable-background:new 0 0 503.608 503.608;" xml:space="preserve">
<g>
	<g>
		<g>
			<path d="M428.068,486.734c-4.642,0-8.393,3.76-8.393,8.393s3.752,8.393,8.393,8.393c4.642,0,8.393-3.76,8.393-8.393
				S432.709,486.734,428.068,486.734z"/>
			<path d="M461.641,486.734c-4.642,0-8.393,3.76-8.393,8.393s3.752,8.393,8.393,8.393c4.642,0,8.393-3.76,8.393-8.393
				S466.283,486.734,461.641,486.734z"/>
			<path d="M495.215,486.734c-4.642,0-8.393,3.76-8.393,8.393s3.752,8.393,8.393,8.393c4.642,0,8.393-3.76,8.393-8.393
				S499.857,486.734,495.215,486.734z"/>
			<path d="M209.837,486.734H68.317l9.335-2.667c11.935-3.399,22.872-9.846,31.635-18.617c7.664-7.664,12.553-17.367,14.164-27.883
				c17.003-8.723,32.112-20.963,43.75-35.458L501.579,13.963c2.854-3.324,2.677-8.301-0.42-11.407
				c-3.106-3.114-8.075-3.307-11.415-0.445L99.013,337.278c-13.588,11.738-24.891,26.452-32.934,42.775
				c-10.565,1.59-20.31,6.484-28.01,14.178c-8.771,8.771-15.209,19.708-18.617,31.635L0.323,492.82
				c-0.015,0.051-0.02,0.104-0.033,0.155c-0.068,0.257-0.124,0.519-0.168,0.785c-0.017,0.102-0.034,0.203-0.047,0.305
				c-0.033,0.261-0.052,0.525-0.061,0.793c-0.002,0.077-0.011,0.154-0.012,0.23c0,0.013-0.002,0.025-0.002,0.037
				c0,0.323,0.022,0.64,0.058,0.953c0.01,0.083,0.026,0.165,0.038,0.248c0.038,0.261,0.086,0.518,0.147,0.77
				c0.021,0.086,0.042,0.171,0.066,0.257c0.079,0.287,0.171,0.568,0.279,0.842c0.014,0.036,0.025,0.073,0.04,0.109
				c0.131,0.32,0.283,0.63,0.451,0.929c0.027,0.048,0.058,0.094,0.086,0.142c0.147,0.249,0.306,0.489,0.477,0.721
				c0.047,0.063,0.093,0.127,0.141,0.189c0.383,0.49,0.814,0.94,1.295,1.334c0.036,0.029,0.074,0.054,0.11,0.083
				c0.178,0.141,0.359,0.278,0.548,0.405c0.064,0.043,0.131,0.078,0.196,0.119c0.167,0.105,0.334,0.21,0.508,0.303
				c0.069,0.037,0.142,0.067,0.212,0.102c0.174,0.087,0.348,0.174,0.529,0.249c0.076,0.031,0.154,0.055,0.231,0.084
				c0.178,0.068,0.355,0.136,0.538,0.191c0.101,0.031,0.204,0.052,0.306,0.079c0.16,0.042,0.319,0.088,0.484,0.121
				c0.18,0.036,0.362,0.059,0.544,0.083c0.089,0.012,0.176,0.03,0.265,0.039c0.281,0.029,0.564,0.044,0.848,0.044
				c0.008,0,0.016-0.002,0.023-0.002h201.416c4.633,0,8.393-3.76,8.393-8.393S214.47,486.734,209.837,486.734z M109.966,349.994
				L416.293,87.238L154.3,391.374c-8.688,10.817-19.435,20.119-31.497,27.356c-2.066-9.208-6.683-17.666-13.516-24.499
				c-6.851-6.851-15.332-11.471-24.567-13.526C91.372,369.058,99.827,358.757,109.966,349.994z M35.593,430.482
				c2.627-9.191,7.588-17.618,14.344-24.375v-0.008c6.345-6.337,14.781-9.829,23.745-9.829c8.964,0,17.4,3.492,23.737,9.829
				c6.337,6.345,9.837,14.772,9.837,23.745c0,8.964-3.5,17.4-9.837,23.737c-6.757,6.765-15.184,11.726-24.383,14.353l-52.417,14.974
				L35.593,430.482z"/>
			<path d="M327.346,486.734h-83.934c-4.633,0-8.393,3.76-8.393,8.393s3.76,8.393,8.393,8.393h83.934
				c4.633,0,8.393-3.76,8.393-8.393S331.979,486.734,327.346,486.734z"/>
			<path d="M394.494,486.734H360.92c-4.633,0-8.393,3.76-8.393,8.393s3.76,8.393,8.393,8.393h33.574c4.642,0,8.393-3.76,8.393-8.393
				S399.135,486.734,394.494,486.734z"/>
		</g>
	</g>
</g>
<g>
</g>
<g>
</g>
<g>
</g>
<g>
</g>
<g>
</g>
<g>
</g>
<g>
</g>
<g>
</g>
<g>
</g>
<g>
</g>
<g>
</g>
<g>
</g>
<g>
</g>
<g>
</g>
<g>
</g>
</svg>
