<?xml version="1.0" encoding="iso-8859-1"?>
<!-- Generator: Adobe Illustrator 19.0.0, SVG Export Plug-In . SVG Version: 6.00 Build 0)  -->
<svg version="1.1" id="Capa_1" xmlns="http://www.w3.org/2000/svg" xmlns:xlink="http://www.w3.org/1999/xlink" x="0px" y="0px"
	 viewBox="0 0 512.004 512.004" style="enable-background:new 0 0 512.004 512.004;" xml:space="preserve">
<g>
	<g>
		<path d="M510.577,503.92c0.052-0.079,0.097-0.161,0.146-0.24c0.096-0.155,0.192-0.308,0.278-0.469
			c0.057-0.107,0.105-0.218,0.158-0.327c0.067-0.139,0.136-0.277,0.195-0.421c0.052-0.126,0.094-0.255,0.14-0.383
			c0.047-0.132,0.098-0.262,0.139-0.397c0.046-0.15,0.08-0.302,0.117-0.454c0.028-0.116,0.062-0.23,0.085-0.348
			c0.042-0.211,0.071-0.423,0.097-0.636c0.008-0.062,0.02-0.121,0.026-0.183c0.031-0.302,0.045-0.605,0.043-0.908V123.779
			c0.002-0.304-0.013-0.608-0.044-0.911c-0.002-0.016-0.005-0.032-0.007-0.048c-0.028-0.261-0.067-0.52-0.119-0.778
			c-0.015-0.074-0.037-0.145-0.053-0.218c-0.045-0.197-0.092-0.394-0.151-0.589c-0.027-0.089-0.062-0.174-0.091-0.261
			c-0.06-0.175-0.12-0.35-0.191-0.522c-0.038-0.09-0.082-0.176-0.123-0.264c-0.075-0.163-0.148-0.327-0.234-0.486
			c-0.049-0.092-0.106-0.178-0.158-0.268c-0.087-0.149-0.173-0.299-0.27-0.444c-0.068-0.102-0.145-0.197-0.217-0.295
			c-0.092-0.125-0.18-0.253-0.28-0.374c-0.123-0.15-0.257-0.291-0.391-0.432c-0.058-0.062-0.11-0.128-0.171-0.189
			c-0.085-0.085-0.178-0.159-0.266-0.24c-0.116-0.106-0.228-0.216-0.349-0.316c-0.161-0.133-0.33-0.253-0.498-0.372
			c-0.055-0.039-0.107-0.082-0.163-0.12c-0.193-0.13-0.392-0.247-0.593-0.36c-0.037-0.021-0.073-0.045-0.111-0.065
			c-0.217-0.117-0.439-0.222-0.663-0.319c-0.027-0.012-0.053-0.026-0.081-0.038c-0.245-0.103-0.493-0.193-0.745-0.272
			c-0.011-0.003-0.021-0.008-0.032-0.011c-0.867-0.269-1.767-0.396-2.666-0.382h-73.933
			c-14.487-10.294-96.443-68.355-142.105-97.232c-7.799-8.421-18.94-13.706-31.295-13.706c-12.357,0-23.498,5.285-31.297,13.707
			c-45.662,28.877-127.615,86.937-142.103,97.23H8.669c-0.899-0.014-1.799,0.113-2.666,0.382c-0.011,0.003-0.021,0.008-0.032,0.011
			c-0.252,0.079-0.5,0.169-0.745,0.272c-0.027,0.012-0.053,0.026-0.081,0.038c-0.224,0.097-0.446,0.202-0.663,0.319
			c-0.038,0.021-0.074,0.045-0.111,0.066c-0.201,0.113-0.399,0.229-0.592,0.36c-0.057,0.038-0.11,0.082-0.166,0.122
			c-0.167,0.119-0.335,0.238-0.496,0.37c-0.121,0.1-0.234,0.21-0.349,0.316c-0.088,0.081-0.18,0.155-0.266,0.24
			c-0.061,0.061-0.112,0.127-0.171,0.189c-0.133,0.141-0.267,0.282-0.391,0.432c-0.1,0.121-0.188,0.249-0.28,0.374
			c-0.072,0.098-0.149,0.193-0.217,0.295c-0.097,0.145-0.182,0.295-0.27,0.444c-0.052,0.09-0.109,0.176-0.158,0.268
			c-0.085,0.159-0.159,0.322-0.233,0.484c-0.041,0.089-0.086,0.176-0.124,0.267c-0.071,0.17-0.13,0.344-0.19,0.518
			c-0.03,0.089-0.065,0.175-0.093,0.266c-0.059,0.193-0.105,0.388-0.15,0.583c-0.017,0.075-0.039,0.148-0.055,0.224
			c-0.051,0.255-0.089,0.512-0.117,0.77c-0.002,0.019-0.006,0.037-0.008,0.056c-0.031,0.302-0.045,0.606-0.044,0.909v375.377
			c-0.002,0.302,0.013,0.604,0.043,0.906c0.006,0.065,0.02,0.127,0.028,0.192c0.026,0.21,0.054,0.42,0.096,0.628
			c0.024,0.12,0.058,0.236,0.086,0.353c0.037,0.15,0.07,0.3,0.115,0.449c0.041,0.136,0.093,0.268,0.141,0.401
			c0.045,0.127,0.087,0.254,0.139,0.379c0.06,0.144,0.129,0.282,0.196,0.422c0.052,0.109,0.1,0.219,0.157,0.326
			c0.086,0.161,0.182,0.315,0.278,0.469c0.049,0.08,0.094,0.162,0.146,0.24c0.142,0.213,0.294,0.418,0.453,0.616
			c0.013,0.017,0.025,0.035,0.038,0.051c0.546,0.67,1.191,1.254,1.913,1.732c0.021,0.014,0.043,0.025,0.064,0.039
			c0.214,0.139,0.433,0.27,0.659,0.39c0.027,0.014,0.056,0.026,0.083,0.04c0.221,0.114,0.446,0.22,0.678,0.315
			c0.018,0.007,0.036,0.013,0.053,0.02c0.98,0.392,2.046,0.614,3.166,0.614h494.933c1.119,0,2.186-0.222,3.166-0.614
			c0.018-0.007,0.036-0.012,0.053-0.02c0.232-0.095,0.457-0.201,0.678-0.315c0.027-0.014,0.056-0.026,0.083-0.04
			c0.226-0.12,0.445-0.251,0.659-0.39c0.021-0.014,0.043-0.025,0.064-0.039c0.722-0.478,1.368-1.063,1.913-1.732
			c0.014-0.017,0.025-0.035,0.038-0.051C510.283,504.338,510.435,504.133,510.577,503.92z M482.865,132.271l-34.133,34.133H63.273
			l-34.133-34.133H482.865z M68.269,439.471v-256h375.467v31.045L333.079,337.126c-0.633-0.036-1.27-0.059-1.914-0.059h-1.766
			c-8.388,0-30.669,0-30.669,25.242c0,15.291-13.86,23.452-18.67,25.824c-12.869-1.952-32.594-27.207-32.594-42.533
			c0-42.342-34.458-76.8-76.8-76.8c-19.209,0-42.667-15.753-42.667-34.133c0-4.71-3.823-8.533-8.533-8.533h-17.067
			c-4.719,0-8.533,3.823-8.533,8.533c0,49.442,32.299,85.333,76.8,85.333c14.114,0,25.6,11.486,25.6,25.6
			c0,36.846,32.689,59.732,85.328,59.733c0,0,0.001,0,0.002,0h53.06c8.9,0,15.846-2.483,20.668-7.381
			c6.54-6.649,7.384-15.75,7.407-23.359l81.006-73.007v137.885H68.269z M345.629,371.021c0.094,5.453,0.196,12.245-2.475,14.967
			c-1.852,1.886-5.641,2.278-8.499,2.278h-27.998c5.137-6.468,9.139-15.019,9.139-25.958c0-6.349,0.58-8.175,13.602-8.175h1.766
			c0.942,0,1.853,0.086,2.735,0.235c0.44,0.133,0.887,0.229,1.339,0.289c6.114,1.597,10.356,6.749,10.356,13.223l0.031,2.893
			c0,0.02,0.001,0.039,0.001,0.059L345.629,371.021z M359.674,354.567c-2.126-4.445-5.299-8.274-9.227-11.21l93.289-103.366v38.624
			L359.674,354.567z M246.415,383.471c-17.041-5.205-33.084-15.932-33.084-37.871c0-23.526-19.149-42.667-42.667-42.667
			c-32.631,0-56.124-24.158-59.358-59.733h0.563c5.504,24.593,33.963,42.667,58.795,42.667c32.93,0,59.733,26.795,59.733,59.733
			C230.398,357.12,236.943,371.635,246.415,383.471z M51.202,178.466v266.001l-34.133,34.133V144.333L51.202,178.466z
			 M63.264,456.538H448.74l34.133,34.133H29.131L63.264,456.538z M460.802,444.467V178.466l34.133-34.133v334.268L460.802,444.467z
			 M274.325,29.082c0.428,0.643,0.951,1.231,1.559,1.75c3.572,4.402,5.718,10.005,5.718,16.101c0,14.114-11.486,25.6-25.6,25.6
			s-25.6-11.486-25.6-25.6c0-6.095,2.145-11.698,5.716-16.099c0.61-0.52,1.134-1.11,1.563-1.755
			c4.653-4.773,11.145-7.746,18.321-7.746C263.179,21.333,269.672,24.307,274.325,29.082z M213.368,45.658
			c-0.013,0.425-0.032,0.848-0.032,1.275c0,23.526,19.14,42.667,42.667,42.667c23.526,0,42.667-19.14,42.667-42.667
			c0-0.428-0.02-0.851-0.032-1.276c33.59,22.184,75.949,51.762,101.202,69.547H112.167C137.42,97.419,179.778,67.842,213.368,45.658
			z"/>
	</g>
</g>
<g>
</g>
<g>
</g>
<g>
</g>
<g>
</g>
<g>
</g>
<g>
</g>
<g>
</g>
<g>
</g>
<g>
</g>
<g>
</g>
<g>
</g>
<g>
</g>
<g>
</g>
<g>
</g>
<g>
</g>
</svg>
